<svg viewBox="0 0 115 75" xmlns="http://www.w3.org/2000/svg" xml:space="preserve" style="fill-rule:evenodd;clip-rule:evenodd;stroke-linejoin:round;stroke-miterlimit:2"><path d="M28.853 6.174H3.323v25.531h25.53V6.174zm-.729.73v24.071H4.053V6.904h24.071z" style="fill:#fffce2" transform="translate(35.444 -8.465) scale(1.37093)"/><path style="fill:#fffce2" d="M16.648 14.958h1.641v8.175h-1.641z" transform="matrix(.64632 .64632 -.47572 .47572 53.84 -5.914)"/><path style="fill:#fffce2" d="M16.648 14.958h1.641v8.175h-1.641z" transform="matrix(.64632 -.64632 .47977 .47977 38.487 16.606)"/><path style="fill:#fffce2" d="M16.648 14.958h1.641v8.175h-1.641z" transform="matrix(.91404 0 0 1.22842 41.533 -5.378)"/><g><path d="M28.853 6.174H3.323v25.531h25.53V6.174zm-.729.73v24.071H4.053V6.904h24.071z" style="fill:#fffce2" transform="translate(35.444 31.535) scale(1.37093)"/><path style="fill:#fffce2" d="M16.648 14.958h1.641v8.175h-1.641z" transform="matrix(-.64632 -.64632 .47572 -.47572 61.16 80.914)"/><path style="fill:#fffce2" d="M16.648 14.958h1.641v8.175h-1.641z" transform="matrix(-.64632 .64632 -.47977 -.47977 76.513 58.394)"/><path style="fill:#fffce2" d="M16.648 14.958h1.641v8.175h-1.641z" transform="matrix(-.91404 0 0 -1.22842 73.467 80.378)"/></g><g><path d="M28.853 6.174H3.323v25.531h25.53V6.174zm-.729.73v24.071H4.053V6.904h24.071z" style="fill:#fffce2" transform="translate(-4.556 31.535) scale(1.37093)"/><path style="fill:#fffce2" d="M16.648 14.958h1.641v8.175h-1.641z" transform="rotate(-45 70.87 37.72) scale(.91404 .67277)"/><path style="fill:#fffce2" d="M16.648 14.958h1.641v8.175h-1.641z" transform="rotate(-135 24.15 34.817) scale(.91404 .6785)"/><path style="fill:#fffce2" d="M16.648 14.958h1.641v8.175h-1.641z" transform="matrix(0 -.91404 1.22842 0 -5.378 73.467)"/></g><g><path d="M28.853 6.174H3.323v25.531h25.53V6.174zm-.729.73v24.071H4.053V6.904h24.071z" style="fill:#fffce2" transform="translate(75.444 31.535) scale(1.37093)"/><path style="fill:#fffce2" d="M16.648 14.958h1.641v8.175h-1.641z" transform="matrix(-.64632 .64632 -.47572 -.47572 120.914 53.84)"/><path style="fill:#fffce2" d="M16.648 14.958h1.641v8.175h-1.641z" transform="matrix(.64632 .64632 -.47977 .47977 98.394 38.487)"/><path style="fill:#fffce2" d="M16.648 14.958h1.641v8.175h-1.641z" transform="matrix(0 .91404 -1.22842 0 120.378 41.533)"/></g></svg>