<?xml version="1.0" encoding="UTF-8" standalone="no"?>
<!DOCTYPE svg PUBLIC "-//W3C//DTD SVG 1.1//EN" "http://www.w3.org/Graphics/SVG/1.1/DTD/svg11.dtd">
<svg width="100%" height="100%" viewBox="0 0 35 35" version="1.1" xmlns="http://www.w3.org/2000/svg" xmlns:xlink="http://www.w3.org/1999/xlink" xml:space="preserve" xmlns:serif="http://www.serif.com/" style="fill-rule:evenodd;clip-rule:evenodd;stroke-linejoin:round;stroke-miterlimit:2;">
    <g transform="matrix(1.37093,0,0,1.37093,-4.55604,-8.46477)">
        <path d="M28.853,6.174L3.323,6.174L3.323,31.705L28.853,31.705L28.853,6.174ZM28.124,6.904L28.124,30.975C28.124,30.975 4.053,30.975 4.053,30.975C4.053,30.975 4.053,6.904 4.053,6.904L28.124,6.904Z" style="fill:rgb(255,252,226);"/>
    </g>
    <g transform="matrix(1,-2.28848e-17,2.28848e-17,1,-0.107016,0.194134)">
        <g transform="matrix(0.646324,0.646324,-0.47572,0.47572,13.9462,-6.10819)">
            <rect x="16.648" y="14.958" width="1.641" height="8.175" style="fill:rgb(255,252,226);"/>
        </g>
        <g transform="matrix(0.646324,-0.646324,0.479774,0.479774,-1.40625,16.4115)">
            <rect x="16.648" y="14.958" width="1.641" height="8.175" style="fill:rgb(255,252,226);"/>
        </g>
        <g transform="matrix(0.91404,0,0,1.22842,1.64033,-5.57204)">
            <rect x="16.648" y="14.958" width="1.641" height="8.175" style="fill:rgb(255,252,226);"/>
        </g>
    </g>
</svg>
