<?xml version="1.0" encoding="UTF-8" standalone="no"?>
<!DOCTYPE svg PUBLIC "-//W3C//DTD SVG 1.1//EN" "http://www.w3.org/Graphics/SVG/1.1/DTD/svg11.dtd">
<svg width="100%" height="100%" viewBox="0 0 53 70" version="1.1" xmlns="http://www.w3.org/2000/svg" xmlns:xlink="http://www.w3.org/1999/xlink" xml:space="preserve" xmlns:serif="http://www.serif.com/" style="fill-rule:evenodd;clip-rule:evenodd;stroke-linejoin:round;stroke-miterlimit:2;">
    <path d="M52.5,0L0,0L0,35L17.5,35L17.5,70L52.5,70L52.5,0ZM17.5,1L51.5,1C51.5,1 51.5,69 51.5,69C51.5,69 18.5,69 18.5,69C18.5,69 18.5,34 18.5,34L1,34C1,34 1,1 1,1C1,1 17.5,1 17.5,1Z" style="fill:rgb(255,252,226);"/>
    <g transform="matrix(-2.06582e-16,-1,1,-2.06582e-16,6.98264,35.9616)">
        <g transform="matrix(0.646324,0.646324,-0.47572,0.47572,13.9462,-6.10819)">
            <rect x="16.648" y="14.958" width="1.641" height="8.175" style="fill:rgb(255,252,226);"/>
        </g>
        <g transform="matrix(0.646324,-0.646324,0.479774,0.479774,-1.40625,16.4115)">
            <rect x="16.648" y="14.958" width="1.641" height="8.175" style="fill:rgb(255,252,226);"/>
        </g>
        <g transform="matrix(0.91404,-1.00937e-17,-1.35654e-17,1.5248,1.64033,-10.0052)">
            <rect x="16.648" y="14.958" width="1.641" height="8.175" style="fill:rgb(255,252,226);"/>
        </g>
        <g transform="matrix(-1.6231e-16,0.91404,-0.778551,-1.0461e-16,34.867,10.0508)">
            <rect x="16.648" y="14.958" width="1.641" height="8.175" style="fill:rgb(255,252,226);"/>
        </g>
    </g>
</svg>
