<svg viewBox="0 0 53 70" xmlns="http://www.w3.org/2000/svg" xml:space="preserve" style="fill-rule:evenodd;clip-rule:evenodd;stroke-linejoin:round;stroke-miterlimit:2"><path d="M52.5 0H0v35h17.5v35h35V0zm-35 1h34v68h-33V34H1V1h16.5z" style="fill:#fffce2"/><path style="fill:#fffce2" d="M16.648 14.958h1.641v8.175h-1.641z" transform="matrix(.64632 -.64632 .47572 .47572 .874 22.015)"/><path style="fill:#fffce2" d="M16.648 14.958h1.641v8.175h-1.641z" transform="matrix(-.64632 -.64632 .47977 -.47977 23.394 37.368)"/><path style="fill:#fffce2" d="M16.648 14.958h1.641v8.175h-1.641z" transform="matrix(0 -.91404 1.5248 0 -3.023 34.321)"/><path style="fill:#fffce2" d="M16.648 14.958h1.641v8.175h-1.641z" transform="matrix(.91404 0 0 .77855 17.033 1.095)"/></svg>